<svg width="120" height="120" viewBox="0 0 120 120" fill="none" xmlns="http://www.w3.org/2000/svg">
  <defs>
    <linearGradient id="g" x1="14" y1="14" x2="106" y2="106" gradientUnits="userSpaceOnUse">
      <stop stop-color="#2563EB"/>
      <stop offset="1" stop-color="#22C55E"/>
    </linearGradient>
  </defs>
  <rect x="4" y="4" width="112" height="112" rx="32" fill="url(#g)"/>
  <rect x="18" y="32" width="84" height="56" rx="20" fill="white" fill-opacity="0.12"/>
  <circle cx="40" cy="60" r="12" fill="white" fill-opacity="0.9"/>
  <circle cx="80" cy="60" r="12" fill="white" fill-opacity="0.9"/>
  <rect x="30" y="80" width="60" height="6" rx="3" fill="white" fill-opacity="0.75"/>
  <path d="M60 26c-8 0-14.5 6.5-14.5 14.5S52 55 60 55s14.5-6.5 14.5-14.5S68 26 60 26Z" fill="#0EA5E9" fill-opacity="0.28"/>
  <path d="M60 32c-5.5 0-10 4.5-10 10s4.5 10 10 10 10-4.5 10-10-4.5-10-10-10Z" fill="white" fill-opacity="0.9"/>
</svg>
