<svg viewBox="0 0 320 320" xmlns="http://www.w3.org/2000/svg" fill="none">
  <defs>
    <linearGradient id="ai1" x1="50" y1="40" x2="260" y2="270" gradientUnits="userSpaceOnUse">
      <stop stop-color="#DCE4FF"/>
      <stop offset="1" stop-color="#F2F5FF"/>
    </linearGradient>
  </defs>
  <rect x="24" y="24" width="272" height="272" rx="84" fill="url(#ai1)"/>
  <circle cx="92" cy="84" r="18" fill="#EEF3FF" fill-opacity=".8"/>
  <circle cx="238" cy="96" r="14" fill="#E0E8FF" fill-opacity=".7"/>
  <circle cx="246" cy="230" r="10" fill="#DCE6FF" fill-opacity=".8"/>
  <ellipse cx="160" cy="226" rx="76" ry="18" fill="#D5DFFA" fill-opacity=".6"/>
  <rect x="134" y="148" width="52" height="72" rx="18" fill="#7FA9FF" fill-opacity=".7" stroke="#6D9AF7" stroke-width="2"/>
  <rect x="110" y="160" width="44" height="60" rx="18" fill="#A6C2FF" fill-opacity=".5"/>
  <rect x="166" y="160" width="44" height="60" rx="18" fill="#A6C2FF" fill-opacity=".5"/>
  <rect x="118" y="134" width="40" height="16" rx="8" fill="#C7D6FF" fill-opacity=".7"/>
  <rect x="162" y="134" width="40" height="16" rx="8" fill="#C7D6FF" fill-opacity=".7"/>
  <circle cx="146" cy="170" r="6" fill="#4A78E8"/>
  <circle cx="174" cy="170" r="6" fill="#4A78E8"/>
  <path d="M142 188c8 6 16 8 24 0" stroke="#4A78E8" stroke-width="3" stroke-linecap="round"/>
  <rect x="94" y="152" width="38" height="54" rx="14" fill="#C7D6FF" fill-opacity=".4" transform="rotate(-8 94 152)"/>
  <rect x="188" y="152" width="38" height="54" rx="14" fill="#C7D6FF" fill-opacity=".4" transform="rotate(8 188 152)"/>
  <rect x="132" y="218" width="56" height="10" rx="5" fill="#B8CBFF" fill-opacity=".6"/>
  <circle cx="122" cy="200" r="8" fill="#92B1FF" fill-opacity=".6"/>
  <circle cx="198" cy="200" r="8" fill="#92B1FF" fill-opacity=".6"/>
</svg>
