<svg viewBox="0 0 320 320" xmlns="http://www.w3.org/2000/svg" fill="none">
  <defs>
    <linearGradient id="p3a" x1="48" y1="42" x2="264" y2="270" gradientUnits="userSpaceOnUse">
      <stop stop-color="#DCE6FF"/>
      <stop offset="1" stop-color="#EEF2FF"/>
    </linearGradient>
  </defs>
  <rect x="22" y="24" width="276" height="272" rx="88" fill="url(#p3a)"/>
  <circle cx="92" cy="86" r="20" fill="#EEF2FF" fill-opacity=".8"/>
  <circle cx="238" cy="92" r="16" fill="#D9E3FF" fill-opacity=".7"/>
  <rect x="70" y="120" width="180" height="104" rx="22" fill="#F6F8FF" stroke="#D7E2F8" stroke-width="2"/>
  <rect x="82" y="138" width="72" height="10" rx="5" fill="#DCE4FF"/>
  <rect x="82" y="156" width="52" height="8" rx="4" fill="#E6ECFF"/>
  <rect x="82" y="176" width="64" height="8" rx="4" fill="#E6ECFF"/>
  <rect x="82" y="196" width="48" height="8" rx="4" fill="#E6ECFF"/>
  <rect x="162" y="152" width="62" height="50" rx="10" fill="#E2EAFF" opacity=".7"/>
  <path d="M170 194c10-14 22-22 32-14s18-10 28-4" stroke="#94A8DC" stroke-width="3" stroke-linecap="round"/>
  <rect x="192" y="140" width="18" height="8" rx="4" fill="#B6C8F2" opacity=".7"/>
  <rect x="202" y="158" width="22" height="6" rx="3" fill="#B6C8F2" opacity=".6"/>
  <rect x="214" y="176" width="16" height="6" rx="3" fill="#B6C8F2" opacity=".5"/>
  <rect x="160" y="208" width="80" height="12" rx="6" fill="#C3D1F5" opacity=".4"/>
  <rect x="126" y="204" width="30" height="12" rx="6" fill="#C3D1F5" opacity=".3"/>
  <rect x="144" y="214" width="36" height="8" rx="4" fill="#C3D1F5" opacity=".3"/>
</svg>
