<svg viewBox="0 0 320 320" xmlns="http://www.w3.org/2000/svg" fill="none">
  <defs>
    <linearGradient id="p2a" x1="50" y1="40" x2="260" y2="270" gradientUnits="userSpaceOnUse">
      <stop stop-color="#D9D2FF"/>
      <stop offset="1" stop-color="#EEF0FF"/>
    </linearGradient>
  </defs>
  <rect x="24" y="28" width="272" height="264" rx="84" fill="url(#p2a)"/>
  <circle cx="88" cy="80" r="18" fill="#F4F1FF" fill-opacity=".8"/>
  <circle cx="246" cy="236" r="14" fill="#D8E3FF" fill-opacity=".8"/>
  <g stroke="#B4C6FF" stroke-width="3">
    <rect x="82" y="114" width="84" height="54" rx="14" fill="#EEF2FF"/>
    <rect x="148" y="88" width="86" height="56" rx="14" fill="#E4E9FF" transform="rotate(12 148 88)"/>
    <rect x="124" y="174" width="98" height="60" rx="16" fill="#EAF0FF" transform="rotate(-8 124 174)"/>
  </g>
  <circle cx="142" cy="140" r="6" fill="#7B89C6"/>
  <circle cx="164" cy="140" r="6" fill="#8BA0D9"/>
  <rect x="182" y="140" width="14" height="6" rx="3" fill="#9CAEDC"/>
  <rect x="194" y="122" width="22" height="8" rx="4" fill="#9CAEDC" transform="rotate(10 194 122)"/>
  <rect x="110" y="188" width="20" height="8" rx="4" fill="#8BA0D9" transform="rotate(-8 110 188)"/>
  <rect x="150" y="204" width="16" height="6" rx="3" fill="#7B89C6"/>
  <rect x="170" y="198" width="22" height="8" rx="4" fill="#9CAEDC"/>
  <rect x="194" y="202" width="18" height="6" rx="3" fill="#7B89C6"/>
  <rect x="206" y="186" width="16" height="6" rx="3" fill="#9CAEDC" transform="rotate(8 206 186)"/>
</svg>
