<svg viewBox="0 0 320 320" xmlns="http://www.w3.org/2000/svg" fill="none">
  <defs>
    <linearGradient id="p1a" x1="40" y1="50" x2="270" y2="260" gradientUnits="userSpaceOnUse">
      <stop stop-color="#C7D9FF"/>
      <stop offset="1" stop-color="#F0F4FF"/>
    </linearGradient>
    <linearGradient id="p1b" x1="90" y1="80" x2="220" y2="240" gradientUnits="userSpaceOnUse">
      <stop stop-color="#E5EDFF"/>
      <stop offset="1" stop-color="#FFFFFF" stop-opacity=".9"/>
    </linearGradient>
  </defs>
  <rect x="18" y="28" width="284" height="264" rx="88" fill="url(#p1a)"/>
  <g opacity=".7" stroke="#C1D4FF" stroke-width="3" fill="url(#p1b)">
    <rect x="58" y="82" width="90" height="54" rx="12" transform="rotate(-8 58 82)"/>
    <rect x="132" y="70" width="96" height="56" rx="12" transform="rotate(8 132 70)"/>
    <rect x="78" y="136" width="102" height="58" rx="14" transform="rotate(5 78 136)"/>
    <rect x="170" y="132" width="94" height="54" rx="12" transform="rotate(-7 170 132)"/>
    <rect x="64" y="192" width="96" height="56" rx="12" transform="rotate(-10 64 192)"/>
    <rect x="156" y="198" width="100" height="58" rx="14" transform="rotate(6 156 198)"/>
  </g>
  <rect x="122" y="132" width="76" height="92" rx="26" fill="#89AFFF" fill-opacity=".7" stroke="#6F94F2" stroke-width="2"/>
  <rect x="136" y="148" width="48" height="10" rx="5" fill="#D9E5FF"/>
  <rect x="136" y="168" width="44" height="10" rx="5" fill="#D9E5FF"/>
  <rect x="136" y="188" width="42" height="10" rx="5" fill="#D9E5FF"/>
  <circle cx="160" cy="212" r="14" fill="#517AEF" fill-opacity=".35"/>
</svg>
