<svg viewBox="0 0 320 320" xmlns="http://www.w3.org/2000/svg" fill="none">
  <defs>
    <linearGradient id="t1" x1="40" y1="60" x2="280" y2="260" gradientUnits="userSpaceOnUse">
      <stop stop-color="#FFE3C4"/>
      <stop offset="1" stop-color="#FFF4E6"/>
    </linearGradient>
    <linearGradient id="box" x1="120" y1="120" x2="220" y2="220" gradientUnits="userSpaceOnUse">
      <stop stop-color="#F4F1FF"/>
      <stop offset="1" stop-color="#E2EAFF"/>
    </linearGradient>
  </defs>
  <rect x="22" y="32" width="276" height="256" rx="80" fill="url(#t1)"/>
  <circle cx="94" cy="94" r="16" fill="#FFF7EA"/>
  <circle cx="238" cy="96" r="14" fill="#FFEBD6"/>
  <circle cx="252" cy="230" r="12" fill="#F3E4CC"/>
  <path d="M86 190c8 10 20 16 34 14l26-4" stroke="#D1B08A" stroke-width="10" stroke-linecap="round"/>
  <path d="M234 158c-8-10-20-16-34-14l-26 4" stroke="#D1B08A" stroke-width="10" stroke-linecap="round"/>
  <rect x="122" y="132" width="80" height="68" rx="14" fill="url(#box)" stroke="#C8D5F2" stroke-width="3" transform="rotate(-8 122 132)"/>
  <rect x="138" y="154" width="52" height="10" rx="5" fill="#D9E1FF" transform="rotate(-8 138 154)"/>
  <rect x="140" y="174" width="56" height="12" rx="6" fill="#D9E1FF" transform="rotate(-8 140 174)"/>
  <rect x="146" y="140" width="40" height="8" rx="4" fill="#C7D2F4" transform="rotate(-8 146 140)"/>
  <path d="M214 206c16 6 28 4 40-8" stroke="#C89B6F" stroke-width="8" stroke-linecap="round"/>
  <path d="M106 204c-12 8-24 10-40 2" stroke="#C89B6F" stroke-width="8" stroke-linecap="round"/>
</svg>
