<?xml version="1.0" encoding="UTF-8"?>
<svg width="48px" height="48px" viewBox="0 0 48 48" version="1.1" xmlns="http://www.w3.org/2000/svg" xmlns:xlink="http://www.w3.org/1999/xlink">
    <title>编组 3</title>
    <defs>
        <linearGradient x1="50%" y1="0%" x2="50%" y2="100%" id="linearGradient-1">
            <stop stop-color="#0E8AD7" offset="0%"></stop>
            <stop stop-color="#2CB9B3" offset="100%"></stop>
        </linearGradient>
    </defs>
    <g id="页面-1" stroke="none" stroke-width="1" fill="none" fill-rule="evenodd">
        <g id="个人" transform="translate(-284.000000, -431.000000)">
            <g id="编组-4" transform="translate(12.000000, 412.000000)">
                <g id="编组-2备份-2" transform="translate(241.000000, 0.000000)">
                    <g id="编组-3" transform="translate(31.000000, 19.000000)">
                        <rect id="矩形" fill="#E1F3FC" x="0" y="0" width="48" height="48" rx="12"></rect>
                        <g id="编组" transform="translate(15.000000, 15.000000)" fill="url(#linearGradient-1)">
                            <path d="M9.15827974,0.000114367988 C11.8267644,0.000114367988 14.0587516,0.834530518 15.6103426,2.42122139 C17.1619337,4.00611228 18.0349287,6.39469854 17.9989289,9.05418325 C17.992201,10.3461786 17.7073467,11.6215771 17.1637337,12.7936617 C15.3574441,16.56824 11.7610648,17.4232351 8.85858147,17.4286351 C7.42038974,17.4286351 5.98939797,17.2414362 4.59980596,16.8751383 L1.76392227,16.8751383 C1.42284624,16.8782995 1.09747712,16.7320052 0.873480728,16.4747729 C0.649484341,16.2175405 0.549308737,15.875149 0.599328965,15.537746 L0.919727122,13.269759 C0.404930083,12.4255639 0.0998318374,11.0971715 0.0134323342,9.3061818 C-0.21424379,5.16792942 2.47350305,1.43063862 6.46909521,0.329633422 C7.34796419,0.106611493 8.25156539,-0.00407058208 9.15827974,0.000114367988 L9.15827974,0.000114367988 Z M9.16097973,1.30508067 C8.36387126,1.30077166 7.56942267,1.397545 6.79669333,1.59322616 C3.40295385,2.53770836 1.12397967,5.71688858 1.31932482,9.23418221 C1.39132441,10.8100732 1.64872293,11.9791664 2.05822058,12.6091628 C2.20401974,12.8278615 2.26521938,13.09246 2.22651961,13.3534585 L1.91332141,15.5737458 L4.64030573,15.5737458 C4.74740511,15.5737458 4.85180451,15.5872457 4.95440392,15.6169455 C5.82379892,15.8563441 13.3351557,17.789533 15.9811405,12.2509649 C16.4446031,11.245275 16.6888072,10.1524925 16.6975364,9.0451833 C16.7407361,6.73849657 16.0243403,4.70000829 14.681548,3.34821606 C13.3405557,1.99732383 11.5198662,1.30508067 9.16097973,1.30508067 Z M8.43198392,5.73500234 C8.5057835,5.83940174 8.56698314,5.95100109 8.61468287,6.06980041 L8.80548177,6.55129764 L10.4326724,10.5688745 C10.5460718,10.7803733 10.6189713,11.012572 10.6504712,11.2519706 C10.6484248,11.4040544 10.5843853,11.5487123 10.4731722,11.6524683 C10.3597728,11.7676676 10.2031737,11.8324673 10.0384747,11.8297673 C9.87035296,11.8396918 9.70800743,11.766754 9.60377718,11.6344684 C9.54073233,11.5474542 9.48958117,11.4524159 9.45167806,11.35187 C9.37697849,11.2285707 9.34457867,11.1151714 9.287879,11.018872 L8.9926807,10.2367764 L6.46459523,10.2367764 L6.16489696,11.0305719 C6.09199738,11.2519706 5.99389794,11.4625694 5.86879866,11.6605683 C5.76931041,11.7791775 5.61794536,11.8414054 5.46380099,11.8270673 C5.30138486,11.8312435 5.14432718,11.7688106 5.02910349,11.6542683 C4.91529724,11.553868 4.84925849,11.4100212 4.84730454,11.2582706 C4.85000452,11.1700711 4.86350444,11.0836716 4.89050429,10.9972721 C4.93158674,10.869455 4.97782429,10.7433525 5.02910349,10.6192742 L6.62389432,6.57829749 C6.66709407,6.46129816 6.72469374,6.32179896 6.78589339,6.14449998 C6.83809309,6.00050081 6.90649269,5.86730158 6.99019221,5.73950231 C7.06228091,5.63125481 7.1591645,5.54177634 7.27279059,5.47850381 C7.66663129,5.24475263 8.17430298,5.35699967 8.43288392,5.73500234 L8.43198392,5.73500234 Z M12.2155622,5.39840427 C12.3885338,5.39139428 12.5561324,5.45928649 12.6754595,5.5847032 C12.8032588,5.74670227 12.8662584,5.95100109 12.8482585,6.1579999 L12.8482585,11.0584717 C12.8662584,11.2654705 12.8032588,11.4724693 12.6754595,11.6362684 C12.5574947,11.7636016 12.3899301,11.8332559 12.2164622,11.8270673 C12.051086,11.8278746 11.893119,11.7585391 11.7817647,11.6362684 C11.6800151,11.5057242 11.6195351,11.3477868 11.6080657,11.182671 L11.6080657,6.1579999 C11.5922005,5.95328448 11.6542397,5.75013015 11.7817647,5.58920318 C11.8922911,5.46630937 12.0502852,5.39681816 12.2155622,5.39840427 L12.2155622,5.39840427 Z M7.71378805,6.71239672 L6.79489334,9.28278193 L8.64888267,9.28278193 L7.71378805,6.71329671 L7.71378805,6.71239672 Z" id="形状"></path>
                        </g>
                    </g>
                </g>
            </g>
        </g>
    </g>
</svg>