<?xml version="1.0" encoding="UTF-8"?>
<svg width="37px" height="37px" viewBox="0 0 37 37" version="1.1" xmlns="http://www.w3.org/2000/svg" xmlns:xlink="http://www.w3.org/1999/xlink">
    <title>编组 5</title>
    <defs>
        <linearGradient x1="50%" y1="0%" x2="50%" y2="100%" id="linearGradient-1">
            <stop stop-color="#0E8AD7" offset="0%"></stop>
            <stop stop-color="#2CB9B3" offset="100%"></stop>
        </linearGradient>
        <linearGradient x1="50%" y1="0%" x2="50%" y2="100%" id="linearGradient-2">
            <stop stop-color="#0E8AD7" offset="0%"></stop>
            <stop stop-color="#2CB9B3" offset="100%"></stop>
        </linearGradient>
    </defs>
    <g id="页面-1" stroke="none" stroke-width="1" fill="none" fill-rule="evenodd">
        <g id="个人" transform="translate(-22.000000, -334.000000)">
            <g id="编组-5" transform="translate(22.000000, 334.000000)">
                <rect id="矩形备份-2" fill="#E1F3FC" x="0" y="0" width="37" height="37" rx="12"></rect>
                <g id="编组" transform="translate(12.000000, 11.000000)">
                    <path d="M10.6625843,0.500000331 C11.0928692,0.499725305 11.4855034,0.672010523 11.7772631,0.953337475 C12.0701437,1.23574538 12.2616302,1.62772239 12.2905868,2.06777282 L12.2930131,6.24121266 L11.8708907,2.18312214 C11.8708907,1.87112102 11.7564646,1.58749203 11.5696396,1.3720386 C11.3697481,1.14151652 11.086971,0.989095852 10.7699148,0.960001617 L2.13082769,0.954999476 C1.82257046,0.954950552 1.53825852,1.07222378 1.3221535,1.26871435 C1.10259981,1.46834057 0.953611125,1.75006283 0.924565358,2.07167947 L0.920904749,13.8168014 C0.92085788,14.1264047 1.03452528,14.4112212 1.22250047,14.6280011 C1.42090855,14.8568125 1.7017795,15.0099983 2.02098382,15.0399542 L4.27896235,15.0449524 L2.13166436,15.5000005 C1.7012088,15.5002601 1.30845595,15.3278289 1.01667867,15.0463138 C0.72376331,14.7637006 0.532354943,14.3714633 0.503647977,13.9311917 L0.499999927,2.1808982 C0.500240669,1.73441772 0.669560083,1.3262651 0.948526347,1.02343438 C1.22066581,0.728014454 1.5974758,0.533031026 2.02153819,0.50373426 Z" id="形状" stroke="url(#linearGradient-1)"></path>
                    <path d="M8.24540539,10.6587179 L10.7015445,14.7885264 L9.86031438,13.5059205 L7.62805774,13.5064746 L7.18553237,14.6913729 L6.87900637,15.4294941 L8.24540539,10.6587179 Z M12.1730235,9.48578202 C12.3839385,9.46563495 12.4473048,9.4636317 12.488424,9.49828939 C12.5225074,9.52711103 12.5,9.58959582 12.5,9.64014588 L12.5,14.7893697 C12.5,14.8518206 12.5068297,14.9131344 12.4705367,14.9513952 C12.4371033,14.9868713 12.3742854,14.9726082 12.3157254,14.9726082 L12.2396735,14.9787662 C12.2151327,14.9797795 12.1930696,14.9766614 12.1784884,14.9601357 C12.1443892,14.921672 12.1484968,14.8613678 12.1484968,14.7980972 L12.1484968,9.64887338 C12.1484968,9.5857952 12.1376303,9.52202455 12.1730235,9.48578202 Z" id="形状" stroke="url(#linearGradient-2)"></path>
                </g>
            </g>
        </g>
    </g>
</svg>