<?xml version="1.0" encoding="UTF-8"?>
<svg width="48px" height="48px" viewBox="0 0 48 48" version="1.1" xmlns="http://www.w3.org/2000/svg" xmlns:xlink="http://www.w3.org/1999/xlink">
    <title>编组 11</title>
    <defs>
        <linearGradient x1="50%" y1="0%" x2="50%" y2="100%" id="linearGradient-1">
            <stop stop-color="#0E8AD7" offset="0%"></stop>
            <stop stop-color="#2CB9B3" offset="100%"></stop>
        </linearGradient>
        <linearGradient x1="50%" y1="0%" x2="50%" y2="100%" id="linearGradient-2">
            <stop stop-color="#0E8AD7" offset="0%"></stop>
            <stop stop-color="#2CB9B3" offset="100%"></stop>
        </linearGradient>
    </defs>
    <g id="页面-1" stroke="none" stroke-width="1" fill="none" fill-rule="evenodd">
        <g id="个人" transform="translate(-43.000000, -667.000000)">
            <g id="编组-4" transform="translate(12.000000, 412.000000)">
                <g id="编组-2" transform="translate(0.000000, 236.000000)">
                    <g id="编组-11" transform="translate(31.000000, 19.000000)">
                        <g id="编组-3" fill="#E1F3FC">
                            <rect id="矩形" x="0" y="0" width="48" height="48" rx="12"></rect>
                        </g>
                        <g id="编组" transform="translate(16.000000, 15.000000)">
                            <path d="M14.3216907,18.8367922 L2.67840742,18.8367922 C1.20101196,18.8367922 0,17.7513588 0,16.4183776 L0,3.68092577 C0,2.34925979 1.20101196,1.26382639 2.67840742,1.26382639 L4.50253856,1.26382639 C4.92584895,1.26382639 5.26887464,1.5740708 5.26887464,1.95861291 C5.26887464,2.34423464 4.92584895,2.6533798 4.50253856,2.6533798 L2.67840742,2.6533798 C2.04906569,2.6533798 1.53769732,3.11569402 1.53769732,3.6835365 L1.53769732,16.4223035 C1.53769732,16.9889486 2.04894792,17.4511647 2.67840742,17.4511647 L14.3217889,17.4511647 C14.9523476,17.4511647 15.462499,16.9888504 15.462499,16.421008 L15.462499,3.68224095 C15.462499,3.1130833 14.9524458,2.65208425 14.3217889,2.65208425 L12.4988748,2.65208425 C12.0741314,2.65208425 11.7312235,2.34182021 11.7312235,1.95610033 C11.7312235,1.571676 12.0741511,1.26131381 12.4975596,1.26131381 L14.3216907,1.26131381 C15.798988,1.26131381 17,2.34554982 17,3.6784132 L17,16.4171802 C17,17.7513588 15.7990862,18.8367922 14.3216907,18.8367922 Z" id="路径" fill="url(#linearGradient-1)"></path>
                            <path d="M7.92849662,14.0640976 C7.73611755,14.0648049 7.55148603,13.9883489 7.41593085,13.8518388 L3.64945967,10.1080986 C3.36815396,9.82819827 3.36698516,9.37326009 3.64684894,9.09191807 L3.64945967,9.08930734 C3.93353718,8.80748491 4.39173073,8.80748491 4.67580825,9.08930734 L7.92969402,12.3191666 L12.7789682,7.5012407 C13.0632088,7.21849527 13.52247,7.21849527 13.8067105,7.5012407 C13.9420081,7.6350127 14.0186137,7.8170589 14.0196813,8.00731991 C14.0207268,8.19758093 13.9461477,8.38046668 13.8123442,8.51573305 L13.8067105,8.52134709 L8.44477237,13.8518388 C8.30737273,13.9871195 8.12251237,14.0632969 7.92969402,14.0640976 L7.92849662,14.0640976 L7.92849662,14.0640976 Z M8.60940508,2.06844756 L8.38949567,2.06844756 L8.60940508,2.06844756 Z M10.462372,0 L6.53892359,0 C5.39570091,0 4.46855988,0.922115876 4.46855988,2.0565838 C4.46855988,3.19228837 5.39570091,4.11440425 6.53892359,4.11440425 L10.462372,4.11440425 C11.6055946,4.11440425 12.5327357,3.19228837 12.5327357,2.05660343 C12.5327357,0.922115876 11.6042795,0 10.462372,0 L10.462372,0 Z M10.462372,1.44473196 C10.62496,1.42996733 10.7867519,1.48041404 10.9121362,1.5849685 C11.0375206,1.68952295 11.1162205,1.83961554 11.1309138,2.00221005 C11.1474391,2.18409373 11.0823356,2.36392313 10.953206,2.49307543 C10.8240765,2.62222773 10.6442585,2.68736298 10.462372,2.67086969 L6.53892359,2.67086969 C6.30841219,2.68861516 6.08739875,2.57568594 5.96671278,2.37849238 C5.84602681,2.18129881 5.84602681,1.93310544 5.96671278,1.73591187 C6.08739875,1.53871831 6.30841219,1.42578909 6.53892359,1.44353456 L10.462372,1.44353456 L10.462372,1.44473196 L10.462372,1.44473196 Z" id="形状" fill="url(#linearGradient-2)"></path>
                        </g>
                    </g>
                </g>
            </g>
        </g>
    </g>
</svg>