<?xml version="1.0" encoding="UTF-8"?>
<svg width="48px" height="48px" viewBox="0 0 48 48" version="1.1" xmlns="http://www.w3.org/2000/svg" xmlns:xlink="http://www.w3.org/1999/xlink">
    <title>编组 3</title>
    <defs>
        <linearGradient x1="50%" y1="0%" x2="50%" y2="100%" id="linearGradient-1">
            <stop stop-color="#0E8AD7" offset="0%"></stop>
            <stop stop-color="#2CB9B3" offset="100%"></stop>
        </linearGradient>
        <linearGradient x1="50%" y1="0%" x2="50%" y2="100%" id="linearGradient-2">
            <stop stop-color="#0E8AD7" offset="0%"></stop>
            <stop stop-color="#2CB9B3" offset="100%"></stop>
        </linearGradient>
    </defs>
    <g id="页面-1" stroke="none" stroke-width="1" fill="none" fill-rule="evenodd">
        <g id="个人" transform="translate(-284.000000, -549.000000)">
            <g id="编组-4" transform="translate(12.000000, 412.000000)">
                <g id="编组-2备份-2" transform="translate(241.000000, 118.000000)">
                    <g id="编组-3" transform="translate(31.000000, 19.000000)">
                        <rect id="矩形" fill="#E1F3FC" x="0" y="0" width="48" height="48" rx="12"></rect>
                        <g id="编组" transform="translate(16.000000, 15.000000)">
                            <path d="M17.199586,7.63075647 L10.3675576,0.79865558 C9.8551137,0.286799653 9.16030232,-0.000490682017 8.43601298,6.29127326e-07 L2.73426265,0.000799482245 L2.7338998,0.000799482245 C1.22483064,0.000799482245 0,1.22105852 0,2.73041793 L0,8.4287577 C0.000282257332,9.15363314 0.288444888,9.84872107 0.801121543,10.3611731 L7.63554453,17.1958138 C8.14796796,17.7082604 8.84297718,17.9961519 9.56766972,17.9961519 C10.2923623,17.9961519 10.9873715,17.7082604 11.4997949,17.1958138 L17.199586,11.4957325 C18.2668047,10.4284412 18.2668047,8.69797517 17.199586,7.63075647 Z M16.2914305,10.5875045 L10.5916395,16.2875858 C10.3201522,16.559128 9.95190349,16.7116835 9.56792369,16.7116835 C9.18394388,16.7116835 8.81569518,16.559128 8.54420792,16.2875858 L1.71014776,9.45294515 C1.43809916,9.18144006 1.28496915,8.81303541 1.28440681,8.42868513 L1.28440681,2.73041793 C1.28481053,2.34651829 1.43778095,1.97851967 1.70963356,1.70745647 C1.98148616,1.43639327 2.34992806,1.28440652 2.73382725,1.2852063 L8.43557758,1.28440652 C8.81927602,1.28384643 9.18742238,1.43601359 9.45874912,1.70731897 L16.29085,8.53920218 C16.8566135,9.10467317 16.8568734,10.0217129 16.2914305,10.5875045 Z" id="形状" fill="url(#linearGradient-1)"></path>
                            <path d="M6.42203407,3.84429616 C5.00193004,3.84429616 3.85075322,4.99547298 3.85075322,6.41557702 C3.85075322,7.83568105 5.00193004,8.98671273 6.42203407,8.98671273 C7.84213811,8.98671273 8.99324235,7.83553592 8.99324235,6.41550444 C8.99324235,4.99547296 7.84199297,3.84429616 6.42203407,3.84429616 Z M7.33193106,7.32540145 C6.89786141,7.75953171 6.21756938,7.82657537 5.70710518,7.48553015 C5.19664098,7.14448494 4.99818086,6.49033994 5.23309826,5.92315447 C5.46801565,5.35596899 6.07088054,5.03371751 6.67299531,5.15348126 C7.27511007,5.27324501 7.7087675,5.80166697 7.7087675,6.41557702 C7.70967061,6.75701572 7.57395328,7.08462909 7.33185851,7.32540145 L7.33193106,7.32540145 Z" id="形状" fill="url(#linearGradient-2)"></path>
                        </g>
                    </g>
                </g>
            </g>
        </g>
    </g>
</svg>