<?xml version="1.0" encoding="UTF-8"?>
<svg width="48px" height="48px" viewBox="0 0 48 48" version="1.1" xmlns="http://www.w3.org/2000/svg" xmlns:xlink="http://www.w3.org/1999/xlink">
    <title>编组 9</title>
    <defs>
        <linearGradient x1="50%" y1="0%" x2="50%" y2="100%" id="linearGradient-1">
            <stop stop-color="#0E8AD7" offset="0%"></stop>
            <stop stop-color="#2CB9B3" offset="100%"></stop>
        </linearGradient>
    </defs>
    <g id="页面-1" stroke="none" stroke-width="1" fill="none" fill-rule="evenodd">
        <g id="个人" transform="translate(-164.000000, -549.000000)">
            <g id="编组-4" transform="translate(12.000000, 412.000000)">
                <g id="编组-2备份" transform="translate(121.000000, 118.000000)">
                    <g id="编组-9" transform="translate(31.000000, 19.000000)">
                        <g id="编组-3" fill="#E1F3FC">
                            <rect id="矩形" x="0" y="0" width="48" height="48" rx="12"></rect>
                        </g>
                        <g id="编组" transform="translate(15.000000, 14.000000)" fill="url(#linearGradient-1)">
                            <path d="M12.9867308,4.5457925 C13.4411287,3.953642 13.705638,3.30147247 13.705638,2.68636693 C13.705638,1.68306364 13.0942276,-5.97131586e-16 9.00025753,-5.97131586e-16 C7.24255081,-5.97131586e-16 4.29429483,0.349006219 4.29429483,2.68636693 C4.29429483,3.30147247 4.5588265,3.953642 5.01324674,4.5457925 C2.01281003,6.51945578 0,10.3025138 0,12.5636638 C0,16.8339958 3.53259055,19.5938861 9.00027994,19.5938861 C14.4674094,19.5938861 18,16.8339958 18,12.5636638 C18,10.3024914 15.9871452,6.5189407 12.9867308,4.5457925 Z M9.00023512,18.2520127 C4.77008004,18.2520127 1.34131345,16.4348244 1.34131345,12.5636414 C1.34131345,10.3530821 3.98907114,5.91527908 7.46480038,4.84055762 C6.40203793,4.31830242 5.63565308,3.36198419 5.63565308,2.68636693 C5.63565308,1.71439449 7.14186215,1.34187334 9.00025753,1.34187334 C10.858093,1.34187334 12.3643245,1.71437208 12.3643245,2.68636693 C12.3643245,3.36198419 11.5984771,4.31832483 10.5351548,4.84055762 C14.0109064,5.91530147 16.6586417,10.3530821 16.6586417,12.5636414 C16.6586417,16.4348245 13.2298079,18.2520127 9.00023512,18.2520127 Z M11.12417,11.1721852 C11.494586,11.1721852 11.7946363,10.8716645 11.7946363,10.5012709 C11.7946363,10.13137 11.4946083,9.83082691 11.12417,9.83082691 L10.1991602,9.83082691 L11.2269862,8.80300092 C11.4888528,8.54111188 11.4888528,8.11643242 11.2269862,7.85452099 C10.9650299,7.59260957 10.5403729,7.59260957 10.2784614,7.85452099 L9.00805104,9.12490898 L7.73764064,7.85452099 C7.47572921,7.59260957 7.05156484,7.59260957 6.78913833,7.85452099 C6.5272269,8.11641003 6.5272269,8.54111188 6.78913833,8.80300092 L7.81694193,9.83082691 L6.87627792,9.83082691 C6.50586192,9.83082691 6.20534125,10.1313476 6.20534125,10.5012709 C6.20534125,10.8716645 6.50586194,11.1721852 6.87627792,11.1721852 L8.32929845,11.1721852 L8.32929845,11.9031409 L6.81576617,11.9031409 C6.44532779,11.9031409 6.14534459,12.2036392 6.14534459,12.5735625 C6.14534459,12.9439561 6.44532781,13.2444768 6.81576617,13.2444768 L8.32929845,13.2444768 L8.32929845,14.5258608 C8.32929845,14.8957617 8.62981914,15.1962824 9.00023512,15.1962824 C9.37062871,15.1962824 9.67063431,14.8957617 9.67063431,14.5258608 L9.67063431,13.2444768 L11.0636358,13.2444768 C11.4340518,13.2444768 11.7345725,12.9439561 11.7345725,12.5735625 C11.7345725,12.2036392 11.4340518,11.9031409 11.0636358,11.9031409 L9.67063431,11.9031409 L9.67063431,11.1721852 L11.12417,11.1721852 Z" id="形状"></path>
                        </g>
                    </g>
                </g>
            </g>
        </g>
    </g>
</svg>