<?xml version="1.0" encoding="UTF-8"?>
<svg width="48px" height="48px" viewBox="0 0 48 48" version="1.1" xmlns="http://www.w3.org/2000/svg" xmlns:xlink="http://www.w3.org/1999/xlink">
    <title>编组 3</title>
    <defs>
        <linearGradient x1="50%" y1="0%" x2="50%" y2="100%" id="linearGradient-1">
            <stop stop-color="#0E8AD7" offset="0%"></stop>
            <stop stop-color="#2CB9B3" offset="100%"></stop>
        </linearGradient>
        <linearGradient x1="50%" y1="0%" x2="50%" y2="100%" id="linearGradient-2">
            <stop stop-color="#0E8AD7" offset="0%"></stop>
            <stop stop-color="#2CB9B3" offset="100%"></stop>
        </linearGradient>
    </defs>
    <g id="页面-1" stroke="none" stroke-width="1" fill="none" fill-rule="evenodd">
        <g id="个人" transform="translate(-43.000000, -431.000000)">
            <g id="编组-4" transform="translate(12.000000, 412.000000)">
                <g id="编组-3" transform="translate(31.000000, 19.000000)">
                    <rect id="矩形" fill="#E1F3FC" x="0" y="0" width="48" height="48" rx="12"></rect>
                    <g id="编组" transform="translate(14.270270, 14.270270)">
                        <path d="M7.71515189,9.62183567 C7.71515189,10.1324828 8.1428835,10.5464441 8.67051718,10.5464441 C9.19815086,10.5464441 9.62588247,10.1324828 9.62588247,9.62183567 C9.62588247,9.11118851 9.19815086,8.6972272 8.67051718,8.6972272 C8.1428835,8.6972272 7.71515189,9.11118851 7.71515189,9.62183567 Z" id="路径" fill="#0E8BD6" fill-rule="nonzero"></path>
                        <path d="M3.53963678,9.62183567 C3.53963678,9.95216647 3.72172836,10.2574047 4.01731941,10.4225701 C4.31291046,10.5877355 4.67709366,10.5877355 4.97268472,10.4225701 C5.26827577,10.2574047 5.45036735,9.95216647 5.45036735,9.62183567 C5.45036735,9.11118851 5.02263574,8.6972272 4.49500206,8.6972272 C3.96736838,8.6972272 3.53963678,9.11118851 3.53963678,9.62183567 L3.53963678,9.62183567 Z" id="路径" fill="#0E8BD6" fill-rule="nonzero"></path>
                        <path d="M11.890667,9.62183567 C11.890667,10.1324828 12.3183986,10.5464441 12.8460323,10.5464441 C13.373666,10.5464441 13.8013976,10.1324828 13.8013976,9.62183567 C13.8013976,9.11118851 13.373666,8.6972272 12.8460323,8.6972272 C12.3183986,8.6972272 11.890667,9.11118851 11.890667,9.62183567 Z" id="路径" fill="#0E8BD6" fill-rule="nonzero"></path>
                        <path d="M3.89189189,3.89741475 L3.89189189,3.89741475 L3.89189189,2.59459459 C3.89189189,1.16163957 5.05353146,0 6.48648649,0 L18.1621622,0 C19.5951172,0 20.7567568,1.16163957 20.7567568,2.59459459 L20.7567568,9.08108108 C20.7567568,10.5140361 19.5951172,11.6756757 18.1621622,11.6756757 L16.9313247,11.6756757 L16.9313247,11.6756757" id="路径" stroke="url(#linearGradient-1)" stroke-width="1.2"></path>
                        <path d="M2,15.5675676 C0.8954305,15.5675676 1.3527075e-16,14.6721371 0,13.5675676 L0,5.89189189 C-1.3527075e-16,4.78732239 0.8954305,3.89189189 2,3.89189189 L14.8648649,3.89189189 C15.9694344,3.89189189 16.8648649,4.78732239 16.8648649,5.89189189 L16.8648649,13.5675676 C16.8648649,14.6721371 15.9694344,15.5675676 14.8648649,15.5675676 L8.18734329,15.5675676 L5.86349003,18.7305537 L3.53963678,15.5675676 L2,15.5675676 Z" id="形状结合" stroke="url(#linearGradient-2)" stroke-width="1.2" stroke-linejoin="round"></path>
                    </g>
                </g>
            </g>
        </g>
    </g>
</svg>