<?xml version="1.0" encoding="UTF-8"?>
<svg width="48px" height="48px" viewBox="0 0 48 48" version="1.1" xmlns="http://www.w3.org/2000/svg" xmlns:xlink="http://www.w3.org/1999/xlink">
    <title>编组 3</title>
    <defs>
        <linearGradient x1="50%" y1="0%" x2="50%" y2="100%" id="linearGradient-1">
            <stop stop-color="#0E8AD7" offset="0%"></stop>
            <stop stop-color="#2CB9B3" offset="100%"></stop>
        </linearGradient>
    </defs>
    <g id="页面-1" stroke="none" stroke-width="1" fill="none" fill-rule="evenodd">
        <g id="活动" transform="translate(-284.000000, -667.000000)">
            <g id="编组-4" transform="translate(12.000000, 412.000000)">
                <g id="编组-2备份" transform="translate(241.000000, 236.000000)">
                    <g id="编组-3" transform="translate(31.000000, 19.000000)">
                        <rect id="矩形" fill="#E1F3FC" x="0" y="0" width="48" height="48" rx="12"></rect>
                        <g id="编组" transform="translate(15.000000, 16.000000)" fill="url(#linearGradient-1)">
                            <path d="M0.872999998,11.2146972 C1.40132978,11.6789197 2.09273669,11.9137066 2.7945,11.8671972 C2.64951919,11.6446193 2.56999695,11.3857822 2.565,11.1201972 L2.565,10.8321972 C1.82796125,10.7536311 1.26260662,10.1421251 1.242,9.40119723 L1.242,2.52519723 C1.24748054,2.13388521 1.40956378,1.76109374 1.692,1.49019722 C1.97791096,1.21811045 2.3593734,1.06940475 2.754,1.07619723 L15.354,1.07619723 C16.175625,1.05844981 16.8591653,1.70390426 16.8885,2.52519723 L16.8885,9.40569723 C16.8591653,10.2269902 16.175625,10.8724446 15.354,10.8546972 L9.747,10.8546972 L9.2025,11.3946972 C9.15692657,11.5863275 9.07933687,11.7688915 8.97300001,11.9346972 L15.273,11.9346972 C15.9621785,11.9461252 16.6281697,11.6858714 17.127,11.2101972 C17.6204861,10.7398296 17.905615,10.0918094 17.919,9.41019724 L17.919,2.52519723 C17.9061142,1.8434751 17.6209045,1.19527115 17.127,0.72519722 C16.6281697,0.249523056 15.9621785,-0.0107307903 15.273,0.000697220145 L2.67300001,0.000697220145 C1.23994574,-0.0321102343 0.0486102591,1.09694632 0.00449999341,2.52969722 L0.00449999341,9.41019724 C0.0390543676,10.1041439 0.352202374,10.7547778 0.872999998,11.2146972 Z M7.6455,12.4926972 L7.6455,12.0426972 C7.89338849,12.0478003 8.13308292,11.953866 8.31150001,11.7816972 C8.48994283,11.6115899 8.59079336,11.3757297 8.5905,11.1291972 L12.2445,7.60569723 C12.2736513,7.54449103 12.2736513,7.47340343 12.2445,7.41219722 C12.2192915,7.34779973 12.1663883,7.29820293 12.1005,7.27719722 C12.0410038,7.24748277 11.9709962,7.24748277 11.9115,7.27719722 L8.5725,10.4676972 L8.5725,7.42119723 C8.54836281,6.74257592 8.04635187,6.17639818 7.3755,6.07119723 L6.849,5.96769723 L5.80049999,8.03769723 L4.72949999,5.96769723 L4.22549999,6.07119723 C3.54575788,6.16658201 3.032026,6.73528889 3.006,7.42119723 L3.006,11.1111972 C2.99532608,11.3697577 3.09321649,11.6210098 3.276,11.8041972 C3.46025932,11.989129 3.71253171,12.0900379 3.97349999,12.0831972 L3.97349999,12.4791972 L7.6455,12.4926972 Z M10.017,13.4241972 L8.0415,13.4241972 C7.5793197,13.4212501 7.13463401,13.6007414 6.804,13.9236972 C6.46941766,14.2167612 6.2775,14.6399143 6.2775,15.0846972 L6.2775,15.7461972 L11.718,15.7461972 L11.718,15.0846972 C11.7260431,14.6429741 11.5421912,14.2194581 11.214,13.9236972 C10.8909362,13.6142324 10.4642086,13.4361619 10.017,13.4241972 L10.017,13.4241972 Z M17.496,13.9236972 C17.1672559,13.6090282 16.7315262,13.4305559 16.2765,13.4241972 L14.301,13.4241972 C13.8405372,13.4300208 13.3989861,13.6082468 13.0635,13.9236972 C12.7437068,14.2254248 12.5615505,14.6450348 12.5595,15.0846972 L12.5595,15.7461972 L18,15.7461972 L18,15.0711972 C17.9942849,14.6362372 17.8124277,14.2221874 17.496,13.9236972 Z M3.717,13.4241825 L1.7415,13.4241825 C1.28554786,13.4259603 0.848180187,13.6051035 0.522000005,13.9236972 C0.201048915,14.22064 0.0129458816,14.6341423 0,15.0711972 L0,15.7326972 L5.4405,15.7326972 L5.4405,15.0711972 C5.44854314,14.6294741 5.26469123,14.2059581 4.9365,13.9101972 C4.60817737,13.5965375 4.17106467,13.4223376 3.717,13.4241825 Z M4.4505,4.53219723 C4.48600709,4.73366768 4.60982848,4.90866858 4.788,5.00919722 C5.166,6.33669722 6.426,6.33669722 6.8895,5.00919722 C7.06210012,4.90261824 7.18393336,4.73042726 7.227,4.53219723 C7.227,4.34769722 7.227,4.08219723 7.0155,4.08219723 C7.02180759,3.77232809 6.89578276,3.47445121 6.669,3.26319723 C6.43953399,3.04957328 6.1310656,2.94185416 5.8185,2.96619723 C5.50152737,2.93707759 5.18676919,3.04145336 4.94999999,3.25419722 C4.71375489,3.46626639 4.57946642,3.76923428 4.581,4.08669723 L4.644,4.08669723 C4.4505,4.07769723 4.4505,4.34769724 4.4505,4.53669722 L4.4505,4.53219723 Z" id="形状"></path>
                        </g>
                    </g>
                </g>
            </g>
        </g>
    </g>
</svg>