<?xml version="1.0" encoding="UTF-8"?>
<svg width="37px" height="37px" viewBox="0 0 24 24" version="1.1" xmlns="http://www.w3.org/2000/svg" xmlns:xlink="http://www.w3.org/1999/xlink">
    <title>icon/客人</title>
    <g id="icon/客人" stroke="none" stroke-width="1" fill="none" fill-rule="evenodd">
        <g id="活动时间备份-6">
            <rect id="矩形复制-13" x="0" y="0" width="24" height="24"></rect>
            <g id="编组-20" transform="translate(3.000000, 3.000000)" stroke="#999999" stroke-linejoin="round" stroke-width="1.6">
                <path d="M18,1 L18,13.2400344 C18,13.5977271 17.808949,13.9281809 17.4989644,14.1066568 L9.49896444,18.7127174 C9.19009013,18.8905542 8.80990987,18.8905542 8.50103556,18.7127174 L0.501035555,14.1066568 C0.191051047,13.9281809 1.82016156e-15,13.5977271 0,13.2400344 L0,1 C-6.76353751e-17,0.44771525 0.44771525,1.01453063e-16 1,0 L17,0 C17.5522847,-2.12475365e-16 18,0.44771525 18,1 Z" id="多边形"></path>
                <polygon id="星形" points="9 11.5 6.06107374 13.045085 6.62235871 9.77254249 4.24471742 7.45491503 7.53053687 6.97745751 9 4 10.4694631 6.97745751 13.7552826 7.45491503 11.3776413 9.77254249 11.9389263 13.045085"></polygon>
            </g>
        </g>
    </g>
</svg>
