<?xml version="1.0" encoding="UTF-8"?>
<svg width="48px" height="48px" viewBox="0 0 48 48" version="1.1" xmlns="http://www.w3.org/2000/svg" xmlns:xlink="http://www.w3.org/1999/xlink">
    <title>编组 3</title>
    <defs>
        <linearGradient x1="50%" y1="0%" x2="50%" y2="100%" id="linearGradient-1">
            <stop stop-color="#0E8AD7" offset="0%"></stop>
            <stop stop-color="#2CB9B3" offset="100%"></stop>
        </linearGradient>
        <linearGradient x1="50%" y1="0%" x2="50%" y2="100%" id="linearGradient-2">
            <stop stop-color="#0E8AD7" offset="0%"></stop>
            <stop stop-color="#2CB9B3" offset="100%"></stop>
        </linearGradient>
    </defs>
    <g id="页面-1" stroke="none" stroke-width="1" fill="none" fill-rule="evenodd">
        <g id="活动" transform="translate(-43.000000, -549.000000)">
            <g id="编组-4" transform="translate(12.000000, 412.000000)">
                <g id="编组-2" transform="translate(0.000000, 118.000000)">
                    <g id="编组-3" transform="translate(31.000000, 19.000000)">
                        <rect id="矩形" fill="#E1F3FC" x="0" y="0" width="48" height="48" rx="12"></rect>
                        <g id="i客人" transform="translate(14.000000, 15.000000)" stroke-linejoin="round" stroke-width="1.2">
                            <g id="编组-20">
                                <path d="M18,1 L18,13.2400344 C18,13.5977271 17.808949,13.9281809 17.4989644,14.1066568 L9.49896444,18.7127174 C9.19009013,18.8905542 8.80990987,18.8905542 8.50103556,18.7127174 L0.501035555,14.1066568 C0.191051047,13.9281809 1.82016156e-15,13.5977271 0,13.2400344 L0,1 C-6.76353751e-17,0.44771525 0.44771525,1.01453063e-16 1,0 L17,0 C17.5522847,-2.12475365e-16 18,0.44771525 18,1 Z" id="多边形" stroke="url(#linearGradient-1)"></path>
                                <polygon id="星形" stroke="url(#linearGradient-2)" points="9 11.5 6.06107374 13.045085 6.62235871 9.77254249 4.24471742 7.45491503 7.53053687 6.97745751 9 4 10.4694631 6.97745751 13.7552826 7.45491503 11.3776413 9.77254249 11.9389263 13.045085"></polygon>
                            </g>
                        </g>
                    </g>
                </g>
            </g>
        </g>
    </g>
</svg>