<?xml version="1.0" encoding="UTF-8"?>
<svg width="48px" height="48px" viewBox="0 0 48 48" version="1.1" xmlns="http://www.w3.org/2000/svg" xmlns:xlink="http://www.w3.org/1999/xlink">
    <title>编组 3备份</title>
    <defs>
        <linearGradient x1="50%" y1="0%" x2="50%" y2="100%" id="linearGradient-1">
            <stop stop-color="#0E8AD7" offset="0%"></stop>
            <stop stop-color="#2CB9B3" offset="100%"></stop>
        </linearGradient>
    </defs>
    <g id="页面-1" stroke="none" stroke-width="1" fill="none" fill-rule="evenodd">
        <g id="编组-3备份">
            <rect id="矩形" fill="#E1F3FC" x="0" y="0" width="48" height="48" rx="12"></rect>
            <g id="形状" transform="translate(15.000000, 15.000000)" fill="url(#linearGradient-1)">
                <path d="M16.2151262,0 L7.87414267,0 C6.89004036,0 6.08931023,0.773254286 6.08931023,1.72334285 L6.08931023,3.92116102 L0.361903032,8.84620364 C0.151013621,8.92751388 3.67770862e-16,9.12851366 3.67770862e-16,9.36795477 L3.67770862e-16,17.3815869 C3.67770862e-16,17.6924073 0.251503156,17.9439725 0.562364875,17.9439725 C0.873185207,17.9439725 1.12472975,17.692428 1.12472975,17.3815869 L1.12472975,9.67329233 L6.08933094,5.40504207 L6.08933094,9.63814065 L3.62130618,12.1940343 C3.40603057,12.4180616 3.41207193,12.7739853 3.63556134,12.9892609 C3.8585335,13.2045159 4.21441585,13.1990331 4.43078801,12.9760403 L7.18217794,10.1247194 L7.64020501,9.71614055 C7.64734294,9.70956126 8.36951451,9.03187237 9.18832738,9.03187237 C9.59856138,9.03187237 9.96818166,9.20432045 10.3575398,9.59531311 C10.3636019,9.60081654 10.4734431,9.70405781 10.5272569,9.90065069 C10.5393396,9.96216096 10.5508637,10.0247471 10.5497672,10.1016505 C10.5464982,10.3092295 10.4821949,10.5882292 10.285602,10.9386081 C10.0714229,11.3021663 9.69464403,11.7590762 9.04333444,12.309379 L6.82081286,14.2534802 L3.68004404,16.9455322 C3.44391327,17.1476699 3.41645814,17.5024144 3.61911307,17.7385658 C3.73005088,17.8681657 3.88764379,17.9351587 4.04581603,17.9351587 C4.17543656,17.9351587 4.30559505,17.8901381 4.41156733,17.8000761 L6.97737128,15.6011614 C7.24865373,15.7571405 7.55345338,15.8472232 7.87416335,15.8472232 L16.2151469,15.8472232 C17.1992699,15.8472232 18,15.0739482 18,14.1238803 L18,1.72334285 C18,0.773254286 17.1992699,0 16.2151262,0 Z M9.84240938,13.238571 C11.1412424,12.1423929 11.7936692,11.0846769 11.7821451,10.0961263 C11.7716761,9.18671358 11.2032699,8.70342449 11.1901113,8.69792104 C10.8287669,8.33219042 10.4289604,8.09055622 10.0027954,7.94997018 C9.75838878,7.86208062 9.50742355,7.80057036 9.24274108,7.79289449 C9.21967215,7.79289449 9.1966032,7.79177725 9.17409288,7.79177725 C8.78912092,7.79177725 8.43654891,7.88514955 8.12570787,8.00926666 C8.12514926,8.00926666 8.12461133,8.00926666 8.12405271,8.00926666 C8.01421145,8.05321143 7.91041158,8.09934931 7.81323238,8.14875614 C7.62760501,8.23881811 7.45515694,8.33219042 7.3151295,8.4244248 L7.3151295,1.72334285 C7.3151295,1.45311558 7.57103956,1.2257779 7.87418406,1.2257779 L13.3473571,1.2257779 L13.3473571,14.6213832 L8.26186636,14.6213832 L9.84240938,13.238571 Z M16.7742014,14.1238596 C16.7742014,14.3940455 16.5182914,14.6213832 16.2151469,14.6213832 L14.540135,14.6213832 L14.540135,1.2257779 L16.2151469,1.2257779 C16.5182914,1.2257779 16.7742014,1.45311558 16.7742014,1.72334285 L16.7742014,14.1238596 Z"></path>
            </g>
        </g>
    </g>
</svg>