<?xml version="1.0" encoding="UTF-8"?>
<svg width="37px" height="37px" viewBox="0 0 37 37" version="1.1" xmlns="http://www.w3.org/2000/svg" xmlns:xlink="http://www.w3.org/1999/xlink">
    <title>编组 3</title>
    <defs>
        <linearGradient x1="50%" y1="0%" x2="50%" y2="100%" id="linearGradient-1">
            <stop stop-color="#0E8AD7" offset="0%"></stop>
            <stop stop-color="#2CB9B3" offset="100%"></stop>
        </linearGradient>
        <linearGradient x1="50%" y1="0%" x2="50%" y2="100%" id="linearGradient-2">
            <stop stop-color="#0E8AD7" offset="0%"></stop>
            <stop stop-color="#2CB9B3" offset="100%"></stop>
        </linearGradient>
    </defs>
    <g id="页面-1" stroke="none" stroke-width="1" fill="none" fill-rule="evenodd">
        <g id="个人" transform="translate(-22.000000, -196.000000)">
            <g id="编组-3" transform="translate(22.000000, 196.000000)">
                <rect id="矩形" fill="#E1F3FC" x="0" y="0" width="37" height="37" rx="12"></rect>
                <g id="编组" transform="translate(11.000000, 11.000000)">
                    <path d="M5.94709625,7.41683166 C5.94709625,7.81045551 6.27680603,8.12955069 6.68352366,8.12955069 C7.09024129,8.12955069 7.41995107,7.81045551 7.41995107,7.41683166 C7.41995107,7.02320781 7.09024129,6.70411263 6.68352366,6.70411263 C6.27680603,6.70411263 5.94709625,7.02320781 5.94709625,7.41683166 Z" id="路径" fill="#0E8BD6" fill-rule="nonzero"></path>
                    <path d="M2.72847001,7.41683166 C2.72847001,7.67146165 2.86883228,7.90674947 3.09668371,8.03406447 C3.32453515,8.16137947 3.6052597,8.16137947 3.83311113,8.03406447 C4.06096257,7.90674947 4.20132483,7.67146165 4.20132483,7.41683166 C4.20132483,7.02320781 3.87161505,6.70411263 3.46489742,6.70411263 C3.0581798,6.70411263 2.72847001,7.02320781 2.72847001,7.41683166 L2.72847001,7.41683166 Z" id="路径" fill="#0E8BD6" fill-rule="nonzero"></path>
                    <path d="M9.16572249,7.41683166 C9.16572249,7.81045551 9.49543227,8.12955069 9.90214989,8.12955069 C10.3088675,8.12955069 10.6385773,7.81045551 10.6385773,7.41683166 C10.6385773,7.02320781 10.3088675,6.70411263 9.90214989,6.70411263 C9.49543227,6.70411263 9.16572249,7.02320781 9.16572249,7.41683166 Z" id="路径" fill="#0E8BD6" fill-rule="nonzero"></path>
                    <path d="M3,3.0042572 L3,3.0042572 L3,2 C3,0.8954305 3.8954305,0 5,0 L14,0 C15.1045695,0 16,0.8954305 16,2 L16,7 C16,8.1045695 15.1045695,9 14,9 L13.0512295,9 L13.0512295,9" id="路径" stroke="url(#linearGradient-1)" stroke-width="1.2"></path>
                    <path d="M2,12 C0.8954305,12 1.3527075e-16,11.1045695 0,10 L0,5 C-1.3527075e-16,3.8954305 0.8954305,3 2,3 L11,3 C12.1045695,3 13,3.8954305 13,5 L13,10 C13,11.1045695 12.1045695,12 11,12 L6.31107712,12 L4.51977357,14.4381351 L2.72847001,12 L2,12 Z" id="形状结合" stroke="url(#linearGradient-2)" stroke-width="1.2" stroke-linejoin="round"></path>
                </g>
            </g>
        </g>
    </g>
</svg>