<?xml version="1.0" encoding="UTF-8"?>
<svg width="48px" height="48px" viewBox="0 0 48 48" version="1.1" xmlns="http://www.w3.org/2000/svg" xmlns:xlink="http://www.w3.org/1999/xlink">
    <title>编组 3</title>
    <defs>
        <linearGradient x1="50%" y1="0%" x2="50%" y2="100%" id="linearGradient-1">
            <stop stop-color="#0E8AD7" offset="0%"></stop>
            <stop stop-color="#2CB9B3" offset="100%"></stop>
        </linearGradient>
        <linearGradient x1="50%" y1="0%" x2="50%" y2="100%" id="linearGradient-2">
            <stop stop-color="#0E8AD7" offset="0%"></stop>
            <stop stop-color="#2CB9B3" offset="100%"></stop>
        </linearGradient>
    </defs>
    <g id="页面-1" stroke="none" stroke-width="1" fill="none" fill-rule="evenodd">
        <g id="活动" transform="translate(-164.000000, -667.000000)">
            <g id="编组-4" transform="translate(12.000000, 412.000000)">
                <g id="编组-2备份" transform="translate(121.000000, 236.000000)">
                    <g id="编组-3" transform="translate(31.000000, 19.000000)">
                        <rect id="矩形" fill="#E1F3FC" x="0" y="0" width="48" height="48" rx="12"></rect>
                        <g id="编组" transform="translate(15.000000, 15.000000)">
                            <path d="M0.638164755,6.30656934 C0.994786236,6.30656934 1.27632951,6.02502607 1.27632951,5.66840459 L1.27632951,2.12095933 C1.27632951,1.65172054 1.65172054,1.27632951 2.12095933,1.27632951 L5.94994786,1.27632951 C6.30656934,1.27632951 6.58811262,0.994786236 6.58811262,0.638164755 C6.58811262,0.281543274 6.30656934,0 5.94994786,0 L2.12095933,0 C0.938477581,0 0,0.957247132 0,2.12095933 L0,5.66840459 C0,6.02502607 0.281543274,6.30656934 0.638164755,6.30656934 Z M15.8790407,0 L12.0500521,0 C11.6934307,0 11.4118874,0.281543274 11.4118874,0.638164755 C11.4118874,0.994786236 11.6934307,1.27632951 12.0500521,1.27632951 L15.8790407,1.27632951 C16.3482795,1.27632951 16.7236705,1.65172054 16.7236705,2.12095933 L16.7236705,5.66840459 C16.7236705,6.02502607 17.0052138,6.30656934 17.3618352,6.30656934 C17.7184567,6.30656934 18,6.02502607 18,5.66840459 L18,2.12095933 C18,0.957247132 17.0427529,0 15.8790407,0 L15.8790407,0 Z M5.94994786,16.4608968 L2.12095933,16.4608968 C1.65172054,16.4608968 1.27632951,16.0855057 1.27632951,15.6162669 L1.27632951,12.0500521 C1.27632951,11.6934307 0.994786236,11.4118874 0.638164755,11.4118874 C0.281543274,11.4118874 0,11.6934307 0,12.0500521 L0,15.5974974 C0,16.7799791 0.938477581,17.7184567 2.10218978,17.7184567 L5.93117831,17.7184567 C6.28779979,17.7184567 6.56934307,17.4369135 6.56934307,17.080292 C6.58811262,16.74244 6.30656934,16.4608968 5.94994786,16.4608968 L5.94994786,16.4608968 Z M17.3618352,11.4118874 C17.0052138,11.4118874 16.7236705,11.6934307 16.7236705,12.0500521 L16.7236705,15.5974974 C16.7236705,16.0667362 16.3482795,16.4421272 15.8790407,16.4421272 L12.0500521,16.4421272 C11.6934307,16.4421272 11.4118874,16.7236705 11.4118874,17.080292 C11.4118874,17.4369135 11.6934307,17.7184567 12.0500521,17.7184567 L15.8790407,17.7184567 C17.0427529,17.7184567 18,16.7612096 18,15.5974974 L18,12.0312826 C18,11.6934307 17.7184567,11.4118874 17.3618352,11.4118874 L17.3618352,11.4118874 Z M8.35245047,8.08967675 L12.3879041,8.08967675 C12.7445255,8.08967675 13.0260688,7.80813347 13.0260688,7.45151199 C13.0260688,7.09489051 12.7445255,6.81334724 12.3879041,6.81334724 L8.35245047,6.81334724 C7.99582899,6.81334724 7.71428571,7.09489051 7.71428571,7.45151199 C7.71428571,7.80813347 7.99582899,8.08967675 8.35245047,8.08967675 L8.35245047,8.08967675 Z M6.06256517,8.08967675 L6.26903024,8.08967675 C6.62565172,8.08967675 6.90719499,7.80813347 6.90719499,7.45151199 C6.90719499,7.09489051 6.62565172,6.81334724 6.26903024,6.81334724 L6.06256517,6.81334724 C5.70594369,6.81334724 5.42440042,7.09489051 5.42440042,7.45151199 C5.44316997,7.80813347 5.72471324,8.08967675 6.06256517,8.08967675 L6.06256517,8.08967675 Z M8.35245047,10.9426486 L12.3879041,10.9426486 C12.7445255,10.9426486 13.0260688,10.6611053 13.0260688,10.3044838 C13.0260688,9.94786236 12.7445255,9.66631908 12.3879041,9.66631908 L8.35245047,9.66631908 C7.99582899,9.66631908 7.71428571,9.94786236 7.71428571,10.3044838 C7.71428571,10.6611053 7.99582899,10.9426486 8.35245047,10.9426486 Z M6.06256517,10.9426486 L6.26903024,10.9426486 C6.62565172,10.9426486 6.90719499,10.6611053 6.90719499,10.3044838 C6.90719499,9.94786236 6.62565172,9.66631908 6.26903024,9.66631908 L6.06256517,9.66631908 C5.70594369,9.66631908 5.42440042,9.94786236 5.42440042,10.3044838 C5.42440042,10.6611053 5.72471324,10.9426486 6.06256517,10.9426486 L6.06256517,10.9426486 Z" id="形状" fill="url(#linearGradient-1)"></path>
                            <path d="M2.42127216,6.02502607 L2.42127216,11.7122002 C2.42127216,12.8759124 3.37851929,13.8331595 4.54223149,13.8331595 L13.4765381,13.8331595 C14.6402503,13.81439 15.5787278,12.8759124 15.5787278,11.7122002 L15.5787278,6.02502607 C15.5787278,4.86131387 14.6214807,3.90406674 13.4577685,3.90406674 L4.52346194,3.90406674 C3.35974974,3.90406674 2.42127216,4.86131387 2.42127216,6.02502607 L2.42127216,6.02502607 Z M14.3211679,6.02502607 L14.3211679,11.7122002 C14.3211679,12.181439 13.9457769,12.55683 13.4765381,12.55683 L4.52346194,12.55683 C4.05422315,12.55683 3.67883212,12.181439 3.67883212,11.7122002 L3.67883212,6.02502607 C3.67883212,5.55578728 4.05422315,5.18039625 4.52346194,5.18039625 L13.4577685,5.18039625 C13.9270073,5.18039625 14.3211679,5.55578728 14.3211679,6.02502607 Z" id="形状" fill="url(#linearGradient-2)"></path>
                        </g>
                    </g>
                </g>
            </g>
        </g>
    </g>
</svg>