<?xml version="1.0" encoding="UTF-8"?>
<svg width="37px" height="37px" viewBox="0 0 37 37" version="1.1" xmlns="http://www.w3.org/2000/svg" xmlns:xlink="http://www.w3.org/1999/xlink">
    <title>编组 4</title>
    <defs>
        <linearGradient x1="50%" y1="0%" x2="50%" y2="100%" id="linearGradient-1">
            <stop stop-color="#0E8AD7" offset="0%"></stop>
            <stop stop-color="#2CB9B3" offset="100%"></stop>
        </linearGradient>
    </defs>
    <g id="页面-1" stroke="none" stroke-width="1" fill="none" fill-rule="evenodd">
        <g id="个人" transform="translate(-22.000000, -265.000000)">
            <g id="编组-4" transform="translate(22.000000, 265.000000)">
                <rect id="矩形备份" fill="#E1F3FC" x="0" y="0" width="37" height="37" rx="12"></rect>
                <g id="编组" transform="translate(11.000000, 12.000000)" stroke="url(#linearGradient-1)">
                    <path d="M8.66671049,8.30010668 C9.42134638,8.30004054 10.1105154,8.58700065 10.6207935,9.05862264 C11.1237248,9.52345429 11.4526437,10.1680215 11.4955985,10.8917989 C11.1057392,10.2705679 10.8627842,9.76296666 10.4896949,9.3733402 C10.0685488,8.93352689 9.48123446,8.64428465 8.81957537,8.60447039 L3.33339321,8.60012447 C2.67774352,8.60004594 2.07848309,8.84827364 1.63163764,9.25503794 C1.17622028,9.66960527 0.878883287,10.248497 0.837829271,10.8992984 C0.55658563,10.1974529 0.83835864,9.60921611 1.2726674,9.16249896 C1.75352881,8.66789915 2.42104099,8.3465008 3.16925975,8.30442945 Z M13.2437418,8.4080905 C13.9765298,8.54052621 14.4912147,8.87129566 14.8639772,9.31563984 C15.2313666,9.75357907 15.4607017,10.3019046 15.4955982,10.8951373 L15.4964015,11.1608252 L15.156374,10.8292938 C15.1122271,10.352907 14.9279014,9.91004508 14.6386467,9.54626841 C14.30817,9.13064959 13.8404693,8.81830528 13.2888202,8.67929798 C13.2697663,8.67451607 13.2521563,8.66687106 13.2365559,8.65683377 C13.215313,8.53202949 13.1938068,8.43684451 13.2437418,8.4080905 Z M6.0000369,0.499999999 C7.01239805,0.499925286 7.94998992,1.02398858 8.4567381,1.87972118 C8.70780854,2.30369737 8.83358564,2.77682837 8.83358564,3.25004445 C8.83358564,3.72326053 8.70780854,4.19639153 8.4567381,4.62036772 C7.94998992,5.47610033 7.01239805,6.00016362 6.0000369,6.0000889 C5.2162002,6.00003106 4.50604744,5.69114112 3.99220655,5.19010147 C3.48300233,4.69358299 3.16691896,4.00798998 3.16691896,3.25004445 C3.16691896,2.49209892 3.48300233,1.80650591 3.99220655,1.30998743 C4.50604744,0.80894778 5.2162002,0.500057846 6.0000369,0.499999999 Z M5.99999999,0.800017784 C5.31111964,0.800017784 4.68799305,1.07318601 4.23673391,1.51316969 C3.78083757,1.95767471 3.49999999,2.57207076 3.49999999,3.25004446 C3.49999999,3.92801816 3.78083757,4.54241421 4.23673391,4.98691923 C4.68799305,5.42690291 5.31111964,5.70007114 5.99999999,5.70007114 C6.68888034,5.70007114 7.31200692,5.42690291 7.76326606,4.98691924 C8.21916241,4.54241422 8.49999999,3.92801817 8.49999999,3.25004446 C8.49999999,2.57207075 8.21916241,1.9576747 7.76326606,1.51316968 C7.31200692,1.07318601 6.68888034,0.800017784 5.99999999,0.800017784 Z M10.5664905,0.865631016 C11.3388297,0.745888371 11.8724819,1.09858122 12.2489026,1.57091527 C12.6224684,2.03966696 12.8409265,2.6263018 12.8409265,3.25307783 C12.8409265,3.87983865 12.6224772,4.46645702 12.2489405,4.93530112 C11.8724583,5.40784246 11.3386937,5.76079942 10.7109819,5.91702063 C10.6636572,5.92882592 10.6157903,5.92121042 10.5767554,5.89865816 C10.5623708,5.89034754 10.5491162,5.87992287 10.5377922,5.86757632 C10.5535089,5.73995786 10.5608835,5.64247063 10.6225974,5.62707586 C11.175397,5.48888054 11.6445566,5.17626806 11.9759367,4.75987443 C12.3102557,4.33978806 12.5046044,3.81411542 12.5046044,3.25307783 C12.5046044,2.69204025 12.3102557,2.16636761 11.9759367,1.74628124 C11.6445566,1.3298876 11.175397,1.01727513 10.6225974,0.879079806 Z" id="形状"></path>
                </g>
            </g>
        </g>
    </g>
</svg>