<?xml version="1.0" encoding="UTF-8"?>
<svg width="37px" height="37px" viewBox="0 0 37 37" version="1.1" xmlns="http://www.w3.org/2000/svg" xmlns:xlink="http://www.w3.org/1999/xlink">
    <title>编组 6</title>
    <defs>
        <linearGradient x1="50%" y1="0%" x2="50%" y2="100%" id="linearGradient-1">
            <stop stop-color="#0E8AD7" offset="0%"></stop>
            <stop stop-color="#2CB9B3" offset="100%"></stop>
        </linearGradient>
    </defs>
    <g id="页面-1" stroke="none" stroke-width="1" fill="none" fill-rule="evenodd">
        <g id="个人" transform="translate(-22.000000, -403.000000)">
            <g id="编组-6" transform="translate(22.000000, 403.000000)">
                <rect id="矩形备份-3" fill="#E1F3FC" x="0" y="0" width="37" height="37" rx="12"></rect>
                <g id="编组" transform="translate(12.000000, 12.000000)" stroke="url(#linearGradient-1)" stroke-width="1.2">
                    <path d="M1,0.621320344 L4,0.621320344 C4.55228475,0.621320344 5,1.06903559 5,1.62132034 L5,4.62132034 C5,5.17360509 4.55228475,5.62132034 4,5.62132034 L1,5.62132034 C0.44771525,5.62132034 6.76353751e-17,5.17360509 0,4.62132034 L0,1.62132034 C-6.76353751e-17,1.06903559 0.44771525,0.621320344 1,0.621320344 Z M11.2071068,0.292893219 L13.3284271,2.41421356 C13.7189514,2.80473785 13.7189514,3.43790283 13.3284271,3.82842712 L11.2071068,5.94974747 C10.8165825,6.34027176 10.1834175,6.34027176 9.79289322,5.94974747 L7.67157288,3.82842712 C7.28104858,3.43790283 7.28104858,2.80473785 7.67157288,2.41421356 L9.79289322,0.292893219 C10.1834175,-0.0976310729 10.8165825,-0.0976310729 11.2071068,0.292893219 Z M1,8.62132034 L4,8.62132034 C4.55228475,8.62132034 5,9.06903559 5,9.62132034 L5,12.6213203 C5,13.1736051 4.55228475,13.6213203 4,13.6213203 L1,13.6213203 C0.44771525,13.6213203 6.76353751e-17,13.1736051 0,12.6213203 L0,9.62132034 C-6.76353751e-17,9.06903559 0.44771525,8.62132034 1,8.62132034 Z M9,8.62132034 L12,8.62132034 C12.5522847,8.62132034 13,9.06903559 13,9.62132034 L13,12.6213203 C13,13.1736051 12.5522847,13.6213203 12,13.6213203 L9,13.6213203 C8.44771525,13.6213203 8,13.1736051 8,12.6213203 L8,9.62132034 C8,9.06903559 8.44771525,8.62132034 9,8.62132034 Z" id="形状结合"></path>
                </g>
            </g>
        </g>
    </g>
</svg>