<?xml version="1.0" encoding="UTF-8"?>
<svg width="37px" height="37px" viewBox="0 0 37 37" version="1.1" xmlns="http://www.w3.org/2000/svg" xmlns:xlink="http://www.w3.org/1999/xlink">
    <title>编组 7</title>
    <defs>
        <linearGradient x1="50%" y1="0%" x2="50%" y2="100%" id="linearGradient-1">
            <stop stop-color="#0E8AD7" offset="0%"></stop>
            <stop stop-color="#2CB9B3" offset="100%"></stop>
        </linearGradient>
        <linearGradient x1="50%" y1="0%" x2="50%" y2="100%" id="linearGradient-2">
            <stop stop-color="#0E8AD7" offset="0%"></stop>
            <stop stop-color="#2CB9B3" offset="100%"></stop>
        </linearGradient>
    </defs>
    <g id="页面-1" stroke="none" stroke-width="1" fill="none" fill-rule="evenodd">
        <g id="个人" transform="translate(-22.000000, -474.000000)">
            <g id="编组-7" transform="translate(22.000000, 474.000000)">
                <rect id="矩形备份-4" fill="#E1F3FC" x="0" y="0" width="37" height="37" rx="12"></rect>
                <g id="编组" transform="translate(12.000000, 12.000000)" stroke-linejoin="round" stroke-width="1.2">
                    <g id="编组-2">
                        <path d="M5.53944082,14 L8.29403013,14 L8.61105401,11.8423815 L8.92661947,11.7153126 C9.35211328,11.542302 9.75226705,11.3173336 10.1168719,11.0456943 L10.383398,10.8497129 L12.4667498,11.6618963 L13.8433153,9.34311721 L12.0791749,8.00151055 L12.1214691,7.67189718 C12.1876449,7.22706497 12.1876449,6.77566966 12.1214691,6.33101975 L12.0791749,6.00140638 L13.8425861,4.65907049 L12.4556294,2.33354603 L10.3730067,3.14664097 L10.1050222,2.94537263 C9.74570417,2.67300405 9.34846723,2.44876486 8.92534335,2.27867123 L8.61123631,2.15761853 L8.29421243,0 L5.53962312,0 L5.22114082,2.15761853 L4.90630457,2.28377586 C4.48254933,2.45601177 4.08235967,2.68132098 3.71532297,2.95430573 L3.45317212,3.1495579 L1.37656545,2.33354603 L0,4.65086662 L1.76341114,5.99320251 L1.7218462,6.32281588 C1.6907763,6.54473016 1.673667,6.76837605 1.67061922,6.99243421 C1.67353606,7.21740263 1.68994328,7.44164182 1.7218462,7.66369331 L1.76341114,7.99330668 L0,9.33564257 L1.37656545,11.6655424 L3.4591881,10.8517183 L3.72735493,11.0529866 C4.08918013,11.3269407 4.48589811,11.5514544 4.90703378,11.7205995 L5.22259924,11.8452984 L5.53962312,13.9992708 L5.53962312,14 L5.53944082,14 Z" id="路径" stroke="url(#linearGradient-1)"></path>
                        <circle id="椭圆形" stroke="url(#linearGradient-2)" cx="7" cy="7" r="2"></circle>
                    </g>
                </g>
            </g>
        </g>
    </g>
</svg>